<svg xmlns="http://www.w3.org/2000/svg" style="display:none"><defs><svg id="op3-icons-bullet-marker-circle" xmlns="http://www.w3.org/2000/svg" viewBox="0 0 32 32"><g fill="currentColor" class="nc-icon-wrapper"><path fill="currentColor" d="m 16,8 c -4.406429,0 -8,3.593571 -8,8 0,4.406429 3.593571,8 8,8 4.406429,0 8,-3.593571 8,-8 0,-4.406429 -3.593571,-8 -8,-8 z m 0,2 c 3.32555,0 6,2.67445 6,6 0,3.32555 -2.67445,6 -6,6 -3.32555,0 -6,-2.67445 -6,-6 0,-3.32555 2.67445,-6 6,-6 z"/></g></svg><svg id="op3-icons-chart-bar-33-1" xmlns="http://www.w3.org/2000/svg" viewBox="0 0 32 32"><path fill="currentColor" d="M19 0v2h4.586L16 9.586l-5-5-5.707 5.707 1.414 1.414L11 7.414l5 5 9-9V8h2V0h-8zm5 11v21h8V11h-8zm2 2h4v17h-4V13zm-14 4v15h8V17h-8zm2 2h4v11h-4V19zM0 23v9h8v-9H0zm2 2h4v5H2v-5z"/></svg><svg id="op3-icons-check-circle-08-2" xmlns="http://www.w3.org/2000/svg" viewBox="0 0 32 32"><path fill="currentColor" d="M16 0C7.2 0 0 7.2 0 16s7.2 16 16 16 16-7.2 16-16S24.8 0 16 0zm7 10c.25 0 .5.1.7.3.4.4.4 1 0 1.4l-10 10c-.2.2-.4.3-.7.3s-.5-.1-.7-.3l-4-4c-.4-.4-.4-1 0-1.4.4-.4 1-.4 1.4 0l3.3 3.3 9.3-9.3c.2-.2.45-.3.7-.3z"/></svg><svg id="op3-icons-check-simple-2" xmlns="http://www.w3.org/2000/svg" viewBox="0 0 32 32"><path fill="currentColor" d="M26 4c-.25 0-.5.1-.7.3L12 17.6l-5.301-5.3c-.4-.4-.998-.4-1.398 0l-4 4c-.4.4-.4.998 0 1.398l10 10c.2.2.499.301.699.301s.499-.1.699-.3l18-18c.4-.4.4-1 0-1.399l-4-4c-.2-.2-.45-.3-.7-.3z"/></svg><svg id="op3-icons-money-coins-1" xmlns="http://www.w3.org/2000/svg" viewBox="0 0 32 32"><path fill="currentColor" d="M0 0v24h16v-2H2V2h28v14h2V0H0zm8 4v1c0 1.745-1.255 3-3 3H4v8h1c1.745 0 3 1.255 3 3v1h8v-2H9.799A4.842 4.842 0 006 14.201V9.8A4.842 4.842 0 009.799 6H22.2A4.842 4.842 0 0026 9.8V14h2V8h-1c-1.746 0-3-1.255-3-3V4H8zm8 4c-2.197 0-4 1.803-4 4s1.803 4 4 4 4-1.803 4-4-1.803-4-4-4zm0 2c1.116 0 2 .884 2 2s-.884 2-2 2-2-.884-2-2 .884-2 2-2zm9 6c-1.792 0-3.422.35-4.69.984C19.044 17.618 18 18.631 18 20v8c0 1.369 1.043 2.382 2.31 3.016S23.209 32 25 32s3.422-.35 4.69-.984S32 29.369 32 28v-8c0-1.369-1.043-2.382-2.31-3.016C28.421 16.35 26.791 16 25 16zm0 2c1.522 0 2.891.322 3.795.773.904.452 1.205.939 1.205 1.227s-.301.775-1.205 1.227C27.89 21.679 26.522 22 25 22s-2.891-.321-3.795-.773C20.301 20.775 20 20.288 20 20s.301-.775 1.205-1.227C22.11 18.322 23.478 18 25 18zm-5 4.826c.106.06.2.135.31.19 1.268.634 2.898.984 4.69.984s3.422-.35 4.69-.984c.11-.055.204-.13.31-.19V24c0 .288-.301.775-1.205 1.227-.904.451-2.273.773-3.795.773s-2.891-.322-3.795-.773C20.301 24.775 20 24.288 20 24v-1.174zm0 4c.106.06.2.135.31.19 1.268.634 2.898.984 4.69.984s3.422-.35 4.69-.984c.11-.055.204-.13.31-.19V28c0 .288-.301.775-1.205 1.227-.904.451-2.273.773-3.795.773s-2.891-.322-3.795-.773C20.301 28.775 20 28.288 20 28v-1.174z"/></svg><svg id="op3-icons-ob-arrow-right-6" xmlns="http://www.w3.org/2000/svg" viewBox="0 0 112 112"><path fill="currentColor" d="M48.258 0v16C21.742 15.992.242 37.484.242 64s21.5 48.008 48.016 48v-.102c-17.203-.546-31-14.562-31-31.898s13.796-31.36 31-31.89V64l48-32-48-32z"/></svg><svg id="op3-icons-play-circle-1" xmlns="http://www.w3.org/2000/svg" viewBox="0 0 20 20"><path fill="currentColor" d="M10 0C1.09 0-3.37 10.771 2.93 17.07S20 18.91 20 10c0-5.523-4.477-10-10-10zm-.29.984C14.418.866 19 4.487 19 10a9 9 0 01-9 9C1.981 19-2.033 9.306 3.637 3.637 5.408 1.865 7.572 1.038 9.71.985zM8.024 5.846A1.003 1.003 0 007 6.8v6.398c.007.174.059.343.15.49a.999.999 0 001.38.31l5.15-3.15c.13-.08.24-.19.32-.32a1 1 0 00-.36-1.34L8.53 6a.987.987 0 00-.507-.153z"/></svg><svg id="op3-icons-recipe-create-2" xmlns="http://www.w3.org/2000/svg" viewBox="0 0 32 32"><path fill="currentColor" d="M2 0a1 1 0 00-1 1v30a1 1 0 001 1h17.355a8.983 8.983 0 01-3.356-7 9.01 9.01 0 019-9 8.92 8.92 0 014 .95V1a1 1 0 00-1-1H2zm5 8h3v2H7V8zm6 0h10v2H13V8zm-6 7h8v2H7v-2zm18 3c-6.237 0-9.359 7.54-4.95 11.949S32 31.236 32 24.999a7 7 0 00-7-7zm-1 3h2v3h3v2h-3v3h-2v-3h-3v-2h3v-3zM7 22h6v2H7v-2z"/></svg><svg id="op3-icons-small-right" xmlns="http://www.w3.org/2000/svg" viewBox="0 0 32 32"><path fill="currentColor" d="M13 8.586L11.586 10l6 6-6 6L13 23.414 20.414 16 13 8.586z"/></svg><svg id="op3-icons-user-3" xmlns="http://www.w3.org/2000/svg" viewBox="0 0 32 32"><path fill="currentColor" d="M14 0C9.589 0 6 3.589 6 8c0 4.249 3.421 9 8 9s8-4.751 8-9c0-4.411-3.589-8-8-8zm12 17c-2.206 0-4 1.794-4 4v2h-1a1 1 0 00-1 1v7a1 1 0 001 1h10a1 1 0 001-1v-7a1 1 0 00-1-1h-1v-2c0-2.206-1.794-4-4-4zm-12 2c-5.647 0-9.443 1.158-11.633 2.129A3.996 3.996 0 000 24.783V30a1 1 0 001 1h17v-7c0-1.304.836-2.415 2-2.828V21c0-.508.07-1 .19-1.47-1.75-.316-3.793-.53-6.19-.53zm12 0c1.103 0 2 .897 2 2v2h-4v-2c0-1.103.897-2 2-2z"/></svg><svg id="op3-icons-window-add-1" xmlns="http://www.w3.org/2000/svg" viewBox="0 0 32 32"><path fill="currentColor" d="M0 2v28h32V2H0zm2 2h4v3H2V4zm6 0h22v3H8V4zM2 9h28v19H2V9zm13 5v4h-4v2h4v4h2v-4h4v-2h-4v-4h-2z"/></svg></defs></svg>