<svg xmlns="http://www.w3.org/2000/svg" style="display:none"><defs><svg id="op3-icons-alert-2" xmlns="http://www.w3.org/2000/svg" viewBox="0 0 32 32"><path fill="currentColor" d="M16 3.041c-.353 0-.706.16-.88.484l-14 26A1.001 1.001 0 002 31h28a1.001 1.001 0 00.88-1.475l-14-26c-.174-.323-.527-.484-.88-.484zM14.285 12h3.43L17 22h-2l-.715-10zM16 24.443A1.778 1.778 0 1115.998 28 1.778 1.778 0 0116 24.443z"/></svg><svg id="op3-icons-check-circle-08-2" xmlns="http://www.w3.org/2000/svg" viewBox="0 0 32 32"><path fill="currentColor" d="M16 0C7.2 0 0 7.2 0 16s7.2 16 16 16 16-7.2 16-16S24.8 0 16 0zm7 10c.25 0 .5.1.7.3.4.4.4 1 0 1.4l-10 10c-.2.2-.4.3-.7.3s-.5-.1-.7-.3l-4-4c-.4-.4-.4-1 0-1.4.4-.4 1-.4 1.4 0l3.3 3.3 9.3-9.3c.2-.2.45-.3.7-.3z"/></svg><svg id="op3-icons-security-2" xmlns="http://www.w3.org/2000/svg" viewBox="0 0 32 32"><path fill="currentColor" d="M16 .998a.993.993 0 00-.6.201C11.751 3.936 5.991 6 2 6a1 1 0 00-1 1c0 10.728 5.733 20.117 14.605 23.92a1.001 1.001 0 00.79 0C25.266 27.117 30.998 17.728 30.998 7a1 1 0 00-1-1c-3.99 0-9.75-2.064-13.4-4.8a.993.993 0 00-.6-.202zm0 2.234V16h11.461C25.39 21.792 21.341 26.48 16 28.906V16H4.539a26.604 26.604 0 01-1.523-8.035c4.1-.278 9.287-2.162 12.984-4.732z"/></svg><svg id="op3-icons-small-right" xmlns="http://www.w3.org/2000/svg" viewBox="0 0 32 32"><path fill="currentColor" d="M13 8.586L11.586 10l6 6-6 6L13 23.414 20.414 16 13 8.586z"/></svg></defs></svg>